<svg width="869" height="200" fill="none" xmlns="http://www.w3.org/2000/svg"><path d="M0 95.082C0 50.26 0 27.849 13.924 13.924 27.85 0 50.26 0 95.082 0h9.836c44.822 0 67.233 0 81.158 13.924C200 27.85 200 50.26 200 95.082v9.836c0 44.822 0 67.233-13.924 81.158C172.151 200 149.74 200 104.918 200h-9.836c-44.822 0-67.233 0-81.158-13.924C0 172.151 0 149.74 0 104.918v-9.836Z" fill="#07F"/><path d="M44.242 1.57C57.005 0 73.428 0 95.082 0h9.836c21.654 0 38.077 0 50.84 1.57.828 1.241 1.242 2.471 1.242 3.76 0 5.546-7.669 10.008-23.007 18.934l-1.456.847C117.199 34.037 109.53 38.5 100 38.5c-9.53 0-17.199-4.463-32.537-13.389l-1.456-.847C50.67 15.34 43 10.876 43 5.33c0-1.289.414-2.519 1.242-3.76ZM56.381 42.267c15.514 8.957 23.27 13.435 28.09 21.783 4.82 8.347 4.82 17.304 4.82 35.217v1.7c0 17.914 0 26.87-4.82 29.653-4.82 2.782-12.576-1.696-28.09-10.653l-1.472-.85c-15.514-8.956-23.27-13.435-28.09-21.782C22 88.987 22 80.03 22 62.117v-1.7c0-17.913 0-26.87 4.82-29.652 4.819-2.783 12.575 1.696 28.089 10.652l1.472.85Z" fill="#00D9ED"/><path d="M143.619 43.197c-15.513 8.956-23.27 13.435-28.09 21.782-4.819 8.347-4.819 17.304-4.819 35.218v1.7c0 17.913 0 26.87 4.819 29.652 4.82 2.783 12.576-1.696 28.09-10.652l1.472-.85c15.514-8.957 23.27-13.435 28.09-21.783C178 89.917 178 80.96 178 63.047v-1.7c0-17.914 0-26.87-4.819-29.653-4.82-2.782-12.576 1.696-28.09 10.652l-1.472.85Z" fill="#fff"/><path d="M327.362 151.015h-24.194l-34.425-97.29h17.834l27.512 80.178h2.765l28.48-80.178h17.558l-35.53 97.29ZM408.954 100.645l44.793 50.37h-21.844l-36.498-41.676h-4.148v41.676h-16.59v-97.29h16.59V93.33h4.01l34.563-39.606h20.461l-41.337 46.92ZM536.341 152.395c-9.216 0-17.465-2.116-24.747-6.348-7.281-4.324-12.995-10.258-17.143-17.802-4.055-7.636-6.083-16.284-6.083-25.944 0-9.568 2.028-18.124 6.083-25.668 4.148-7.636 9.862-13.57 17.143-17.802 7.282-4.324 15.531-6.486 24.747-6.486 10.047 0 18.941 2.53 26.683 7.59 7.742 4.968 13.272 11.822 16.59 20.562l-16.452 2.76c-2.304-4.968-5.806-8.832-10.507-11.592-4.608-2.76-9.862-4.14-15.761-4.14-6.083 0-11.521 1.472-16.313 4.416-4.701 2.944-8.388 7.038-11.06 12.282-2.581 5.244-3.871 11.27-3.871 18.078s1.29 12.88 3.871 18.216c2.672 5.244 6.359 9.338 11.06 12.282 4.792 2.944 10.23 4.416 16.313 4.416 5.991 0 11.383-1.426 16.176-4.278 4.792-2.944 8.387-6.992 10.783-12.144l16.452 2.76c-3.502 8.832-9.217 15.87-17.143 21.114-7.834 5.152-16.774 7.728-26.821 7.728ZM609.403 151.015h-15.899v-97.29h15.899v97.29ZM662.337 152.395c-7.374 0-14.01-1.564-19.908-4.692-5.807-3.22-10.369-7.636-13.687-13.248-3.226-5.704-4.839-12.144-4.839-19.32s1.613-13.57 4.839-19.182c3.318-5.704 7.88-10.12 13.687-13.248 5.898-3.22 12.534-4.83 19.908-4.83 7.373 0 13.963 1.61 19.77 4.83 5.899 3.128 10.461 7.544 13.687 13.248 3.318 5.612 4.977 12.006 4.977 19.182 0 7.176-1.659 13.616-4.977 19.32-3.226 5.612-7.788 10.028-13.687 13.248-5.807 3.128-12.397 4.692-19.77 4.692Zm0-14.49c6.452 0 11.705-2.07 15.761-6.21 4.055-4.232 6.083-9.752 6.083-16.56 0-6.808-2.028-12.282-6.083-16.422-4.056-4.232-9.309-6.348-15.761-6.348s-11.705 2.116-15.761 6.348c-4.055 4.14-6.083 9.614-6.083 16.422s2.028 12.328 6.083 16.56c4.056 4.14 9.309 6.21 15.761 6.21ZM740.86 152.395c-5.069 0-9.677-1.288-13.825-3.864-4.055-2.576-7.281-6.118-9.677-10.626-2.305-4.508-3.457-9.614-3.457-15.318V79.255H729.8v41.538c0 5.152 1.429 9.338 4.286 12.558 2.949 3.22 6.682 4.83 11.198 4.83 4.609 0 8.434-1.61 11.475-4.83 3.042-3.312 4.563-7.498 4.563-12.558V79.255h15.899v71.76h-11.89l-3.18-10.764c-2.304 3.772-5.346 6.762-9.125 8.97-3.778 2.116-7.834 3.174-12.166 3.174ZM826.163 152.395c-6.729 0-12.766-1.564-18.111-4.692-5.346-3.22-9.54-7.636-12.581-13.248-2.95-5.704-4.424-12.144-4.424-19.32s1.474-13.57 4.424-19.182c3.041-5.704 7.235-10.12 12.581-13.248 5.345-3.22 11.382-4.83 18.111-4.83 5.806 0 10.967 1.196 15.484 3.588 4.516 2.3 8.203 5.198 11.06 8.694V53.725h15.899v97.29h-11.89l-3.318-11.592c-2.949 3.588-6.728 6.67-11.337 9.246-4.608 2.484-9.908 3.726-15.898 3.726Zm3.871-14.214c6.728 0 12.166-2.116 16.313-6.348 4.24-4.324 6.36-9.89 6.36-16.698s-2.12-12.328-6.36-16.56c-4.147-4.324-9.585-6.486-16.313-6.486-6.637 0-12.028 2.162-16.176 6.486-4.147 4.232-6.221 9.752-6.221 16.56 0 6.808 2.074 12.374 6.221 16.698 4.148 4.232 9.539 6.348 16.176 6.348Z" fill="#000"/></svg>